<?xml version="1.0" encoding="UTF-8" standalone="no"?>
<svg viewBox="0 0 471.75 525.05884" xmlns="http://www.w3.org/2000/svg" xmlns:xlink="http://www.w3.org/1999/xlink">
<defs>
<filter id="filter3373">
<feGaussianBlur stdDeviation=".65451"/>
</filter>
<filter id="filter3485">
<feGaussianBlur stdDeviation="1.15856"/>
</filter>
<filter id="filter3838">
<feGaussianBlur stdDeviation=".59324"/>
</filter>
<filter id="filter3854">
<feGaussianBlur stdDeviation="1.30032"/>
</filter>
<filter id="filter3912">
<feGaussianBlur stdDeviation=".71932"/>
</filter>
<filter id="filter3972">
<feGaussianBlur stdDeviation=".31039"/>
</filter>
<filter id="filter4036">
<feGaussianBlur stdDeviation=".33767"/>
</filter>
<filter id="filter4085">
<feGaussianBlur stdDeviation="1.2578"/>
</filter>
<filter id="filter4167">
<feGaussianBlur stdDeviation=".2023"/>
</filter>
<filter id="filter4204">
<feGaussianBlur stdDeviation=".256"/>
</filter>
<filter id="filter3346"></filter>
<filter height="1.07012" id="filter4183" width="1.23489" x="-.11745" y="-.03506">
<feGaussianBlur stdDeviation="2.06736"/>
</filter>
<filter height="1.50977" id="filter3855" width="1.33604" x="-.16802" y="-.25489">
<feGaussianBlur stdDeviation="27.3227"/>
</filter>
<filter height="1.58681" id="filter4237" width="1.30927" x="-.15464" y="-.29341">
<feGaussianBlur stdDeviation="23.15124"/>
</filter>
<filter height="1.38294" id="filter4321" width="1.47824" x="-.23912" y="-.19147">
<feGaussianBlur stdDeviation="15.87129"/>
</filter>
<filter height="1.50251" id="filter4719" width="1.19749" x="-.09874" y="-.25125">
<feGaussianBlur stdDeviation="8.17671"/>
</filter>
<linearGradient id="linearGradient3861">
<stop offset="0" stop-color="#444"/>
<stop offset="1" stop-color="#444" stop-opacity="0"/>
</linearGradient>
<linearGradient id="linearGradient3514">
<stop offset="0" stop-color="#8095a5"/>
<stop offset="1" stop-color="#8095a5" stop-opacity="0"/>
</linearGradient>
<linearGradient id="linearGradient3218">
<stop offset="0" stop-color="#7989a1"/>
<stop offset="1" stop-color="#7989a1" stop-opacity="0"/>
</linearGradient>
<linearGradient gradientUnits="userSpaceOnUse" id="linearGradient3183" x1="360.29413" x2="601.10974">
<stop offset="0" stop-color="#fff"/>
<stop offset=".27664" stop-color="#949494"/>
<stop offset=".55328" stop-color="#838383"/>
<stop offset=".77664" stop-color="#ada5a5" stop-opacity=".99608"/>
<stop offset="1" stop-color="#fff" stop-opacity=".99444"/>
</linearGradient>
<linearGradient gradientUnits="userSpaceOnUse" id="linearGradient3182" x1="405.70901" x2="579.07715">
<stop offset="0" stop-color="#10050f"/>
<stop offset=".38191" stop-color="#0b0c24"/>
<stop offset=".69096" stop-color="#434b59"/>
<stop offset="1" stop-color="#95a0b1"/>
</linearGradient>
<linearGradient gradientUnits="userSpaceOnUse" id="linearGradient3626" x1="393.15256" x2="610.29413">
<stop offset="0" stop-color="#364965"/>
<stop offset=".18063" stop-color="#0d0819"/>
<stop offset=".41365" stop-color="#0b0c24"/>
<stop offset=".69096" stop-color="#434b59"/>
<stop offset="1" stop-color="#95a0b1"/>
</linearGradient>
<linearGradient gradientUnits="userSpaceOnUse" id="linearGradient3260" x1="541.36033" x2="563.20841" y1="254.8469" y2="267.9981">
<stop offset="0" stop-color="#070707"/>
<stop offset=".60593" stop-color="#0c1a21"/>
<stop offset=".75" stop-color="#0e242e"/>
<stop offset=".875" stop-color="#0f2934"/>
<stop offset="1" stop-color="#112e3b"/>
</linearGradient>
<linearGradient gradientUnits="userSpaceOnUse" id="linearGradient3270" x1="523.0926" x2="476.44792" y1="195.20725" y2="255.17967">
<stop offset="0" stop-color="#0b1520"/>
<stop offset=".94403" stop-color="#070f15"/>
<stop offset="1" stop-color="#040709"/>
</linearGradient>
<linearGradient gradientUnits="userSpaceOnUse" id="linearGradient4107" x1="355.8281" x2="391.86928" y1="285.73112" y2="330.92581">
<stop offset="0" stop-color="#252f40"/>
<stop offset="1" stop-color="#252f40" stop-opacity="0"/>
</linearGradient>
<linearGradient gradientUnits="userSpaceOnUse" id="linearGradient3412" x1="353.73168" x2="672.64776" y1="184.25976" y2="256.07529">
<stop offset="0" stop-color="#865f65"/>
<stop offset=".07705" stop-color="#7e5c52"/>
<stop offset=".14221" stop-color="#735547"/>
<stop offset=".38715" stop-color="#392615"/>
<stop offset=".58832" stop-color="#3a1b17"/>
<stop offset=".71412" stop-color="#412318"/>
<stop offset=".79393" stop-color="#40271d"/>
<stop offset=".90065" stop-color="#4e3b34"/>
<stop offset=".97033" stop-color="#52444b"/>
<stop offset="1" stop-color="#574950"/>
</linearGradient>
<linearGradient gradientUnits="userSpaceOnUse" id="linearGradient3414" x1="288.72432" x2="537.58265" y1="309.30784" y2="120.67022">
<stop offset="0" stop-color="#f7f7ff"/>
<stop offset="1" stop-color="#06060c" stop-opacity="0"/>
</linearGradient>
<linearGradient gradientUnits="userSpaceOnUse" id="linearGradient3675" x1="681.8526" x2="577.5331" y1="224.9568" y2="187.96266">
<stop offset="0" stop-color="#392415"/>
<stop offset="1" stop-color="#484848" stop-opacity="0"/>
</linearGradient>
<linearGradient gradientUnits="userSpaceOnUse" id="linearGradient3685" x1="372.40091" x2="443.5665" y1="476.57365" y2="436.92886">
<stop offset="0" stop-color="#1c1c1c"/>
<stop offset="1" stop-color="#2c190b" stop-opacity="0"/>
</linearGradient>
<linearGradient gradientUnits="userSpaceOnUse" id="linearGradient4065" x1="435.10712" x2="356.98212" y1="481.88528" y2="605.96619">
<stop offset="0" stop-color="#1f1f1f"/>
<stop offset="1" stop-color="#444" stop-opacity="0"/>
</linearGradient>
<linearGradient gradientUnits="userSpaceOnUse" id="linearGradient4333" x1="465.78635" x2="509.08804" y1="520.83075" y2="583.78009">
<stop offset="0" stop-color="#292929"/>
<stop offset="1" stop-color="#292929" stop-opacity="0"/>
</linearGradient>
<linearGradient gradientUnits="userSpaceOnUse" id="linearGradient3244" x1="585.47792" x2="612.35073" xlink:href="#linearGradient3218" y1="283.61582" y2="302.45774"/>
<linearGradient gradientTransform="matrix(-.99551,9.4656944e-2,-9.4656944e-2,-.99551,994.46283,469.43186)" gradientUnits="userSpaceOnUse" id="linearGradient3246" x1="554.21497" x2="577.99854" xlink:href="#linearGradient3218" y1="285.78308" y2="291.17477"/>
<linearGradient gradientTransform="matrix(-.99099,.13391,-.13391,-.99099,1004.8067,456.00206)" gradientUnits="userSpaceOnUse" id="linearGradient3248" x1="558.36395" x2="585.23676" xlink:href="#linearGradient3218" y1="278.56067" y2="297.40259"/>
<linearGradient gradientTransform="matrix(.72444,-.68933,.68933,.72444,-13.36662,447.72185)" gradientUnits="userSpaceOnUse" id="linearGradient3250" x1="558.36395" x2="571.0127" xlink:href="#linearGradient3218" y1="278.56067" y2="294.01767"/>
<linearGradient gradientUnits="userSpaceOnUse" id="linearGradient3317" x1="566.17643" x2="527.40013" xlink:href="#linearGradient3514" y1="239.84283" y2="225.5965"/>
<linearGradient gradientUnits="userSpaceOnUse" id="linearGradient3319" x1="442.83206" x2="467.5098" xlink:href="#linearGradient3514" y1="211.12041" y2="223.29872"/>
<linearGradient gradientUnits="userSpaceOnUse" id="linearGradient3321" x1="436.18666" x2="460.8644" xlink:href="#linearGradient3514" y1="210.20129" y2="222.3796"/>
<linearGradient gradientUnits="userSpaceOnUse" id="linearGradient3546" x1="545.95591" x2="538.60294" xlink:href="#linearGradient3514" y1="279.70954" y2="272.12684"/>
<linearGradient gradientUnits="userSpaceOnUse" id="linearGradient3548" x1="547.56433" x2="538.87689" xlink:href="#linearGradient3514" y1="293.95587" y2="285.68384"/>
<linearGradient gradientUnits="userSpaceOnUse" id="linearGradient3550" x1="545.26111" x2="448.29419" xlink:href="#linearGradient3514" y1="291.92383" y2="261.59296"/>
<linearGradient gradientUnits="userSpaceOnUse" id="linearGradient4048" x1="522.28857" x2="549.40252" xlink:href="#linearGradient3514" y1="275.39943" y2="314.34703"/>
<linearGradient gradientUnits="userSpaceOnUse" id="linearGradient3724" x1="480.12665" x2="256.43384" xlink:href="#linearGradient3861" y1="453.05878" y2="681.91907"/>
<linearGradient gradientUnits="userSpaceOnUse" id="linearGradient3867" x1="534.02258" x2="216.70525" xlink:href="#linearGradient3861" y1="471.97946" y2="551.94269"/>
<radialGradient cx="523.25909" cy="193.9334" gradientTransform="matrix(1.01464,-1.74332,1.08577,.63193,-283.87499,1042.4567)" gradientUnits="userSpaceOnUse" id="radialGradient4051" r="23.7885">
<stop offset="0" stop-color="#050707"/>
<stop offset=".34545" stop-color="#8c9b95"/>
<stop offset=".53734" stop-color="#6b7a94"/>
<stop offset=".69843" stop-color="#27212d"/>
<stop offset=".86143" stop-color="#1f1a24"/>
<stop offset=".93071" stop-color="#1b1720"/>
<stop offset="1" stop-color="#17141c"/>
</radialGradient>
</defs>
<g transform="translate(-207.48693,-147.28942)">
<path d="m556.98528,532.00736c-44.11765,49.63235-209.65647,171.18747-238.05147,168.19852-34.92646-3.67647-161.76469-63.41911-151.65441-92.83087 10.7729-31.33936 250-181.9853 288.60294-162.68383s79.96323,61.58089 101.10294,87.31618z" fill="url(#linearGradient3724)" fill-rule="evenodd" filter="url(#filter3855)"/>
<path d="m541.36028,540.27942c-37.22426,27.57353-326.77707,86.48887-340.07352,63.41911-11.47416-19.90803 13.9923-100.60774 25.73529-118.56617 21.78764-33.3196 251.83823-94.66911 284.92646-49.63235s66.63603,77.20588 29.41177,104.77941z" fill="url(#linearGradient3867)" fill-rule="evenodd" filter="url(#filter4237)"/>
<path d="m571.69116,516.38236c-28.49264,49.63235-113.20487,71.50654-193.93382-15.625-11.66982-12.59535-4.59558-22.97794 49.63235-17.46323 78.68636,8.00201 126.83824-6.43383 144.30147,33.08823z" fill="url(#linearGradient4333)" fill-rule="evenodd" filter="url(#filter4719)"/>
<path d="m401.6544,466.75001c61.64726-5.35633 46.78015,23.43408 56.98529,42.27941 25.15953,46.46086-163.60293,197.61028-191.17646,175.55146s67.07236-211.99914 134.19117-217.83087z" fill="url(#linearGradient4065)" fill-rule="evenodd" filter="url(#filter4321)"/>
<path d="m579.07365,471.62393c.81239,106.74843-139.73157,103.01143-173.03968,32.49572 104.79868,47.76871 135.99457,25.83409 173.03968-32.49572z" fill="url(#linearGradient3182)" fill-rule="evenodd" filter="url(#filter3346)"/>
<path d="m578.34076,465.7705c3.08709,99.27442-134.85722,101.87408-177.91404,24.85923 104.79868,47.76871 140.86893,33.47058 177.91404-24.85923z" fill="#95a0b1" fill-rule="evenodd"/>
<g transform="translate(-1.29983)">
<path d="m515.78243,146.29808c-93.86614.70893-176.1265,55.09111-161.40625,118.09374 28.9522,47.79412 175.99448,47.31433 252.28125,34.90625 11.48897,5.97426 17.88115,10.15838 35.875,29.4375 6.43383,6.89338 12.75248,3.63317 14.21875-2.78125 4.37076-19.12076 12.11784-50.42006 21.625-101.5625-.01288-4.39455-2.01035-15.35799-8.75-20.65625-44.87671-41.33617-101.18713-57.83518-153.84375-57.43749zm-8.46875,11.78125c2.72649.02543 5.16267.67964 5.625,2.6875 .72537,3.15014.81877,12.63243-.75,13.09374-1.74115.51202-12.75925,1.36851-13.59375-.4375-1.10037-2.38138-.75691-12.98372.5-13.84374 .74096-.50699 4.71326-1.53269 8.21875-1.5zm32.0625.71875c4.10753-.03635 9.26237.8158 9.3125,3.46875 .05891,3.23204.28753,13.66367-1.28125,14.12499-1.74115.51202-12.76615.02788-13.71875-1.71875-.98548-1.80694-.392-13.65423.75-15.03124 .38209-.46071 2.47298-.82194 4.9375-.84375zm-65.15625,2.53125c1.62831-.05467 2.92329.23675 3.34375,1.15625 .49853,1.0902 1.44375,12.31624-.125,14.15624-1.17747,1.38106-12.65196,4.29362-13.28125,2.40625-.81315-2.43882-.90811-14.1501.40625-15.12499 .88134-.65372 6.07396-2.47348 9.65625-2.59375zm96.84375,4.03125c3.70475-.04695 11.84105,1.61367 11.90625,5.06249 .05891,3.23204.81878,13.38242-.75,13.84375-1.74115.51202-12.90887-2.2812-13.65625-4.125-.7557-1.86438-.30334-13.55129.78125-14.46874 .22849-.19328.86381-.30167 1.71875-.3125zm-128.9375,4.31249c1.21676-.12246 2.16227.1713 2.46875,1.09375 .73399,2.20915.74937,12.75467-.1875,14.25-.96357,1.53796-11.79214,6.20484-12.40625,4.3125-.69825-2.1516-.80978-12.07848-.28125-13.78125 .45165-1.45509 6.75596-5.50762 10.40625-5.875zm161.4375,5.71875c2.91606.03907 10.92979,2.62962 11,6.34375 .05891,3.23204.06876,14.19493-1.5,14.65625-1.74115.51202-11.15594-3.51418-11.9375-5.34375-.69825-1.6346.38924-14.81233 1.53125-15.5 .17092-.10292.48967-.16183.90625-.15625zm-190.78125,7.5625c.19753-.01979.39623-.02166.5625,0 .61393.07999 1.01674.4541 1.03125,1.25 .05891,3.23204.12254,11.69937-.125,13.40625-.26047,1.79608-9.32174,8.24353-10.15625,6.4375-1.10037-2.38138-1.05148-12.78244-.65625-14.90625 .22244-1.19526 6.38081-5.89064 9.34375-6.1875zm221.09375,7.5625c2.13655-.06515 9.76838,4.1463 9.875,8.125 .05891,2.19803-1.66193,14.46608-2.65625,14.8125-1.71383.59712-9.75908-4.87958-10.34375-6.78125-.41699-1.35631.89244-15.17631 2.78125-16.09375 .08973-.04359.20131-.05816.34375-.0625zm-246.3125,9.65625c.42669.03007.70692.3637.78125,1.15625 .1738,1.85336 1.09909,13.33141-.125,15.34375-.94319,1.55054-6.7905,8.64977-7.625,6.84375-1.10037-2.38138-1.0831-14.22524-.125-16.09375 .79311-1.54676 5.24476-7.38029 7.09375-7.25zm271.5,9.6875c2.14011-.06524 9.79981,4.14557 9.875,8.125 .05891,3.23204-1.64996,15.03867-3.21875,15.5-1.74115.51202-8.35298-5.88148-9.1875-7.6875-1.10037-2.38138.29869-14.95755 2.1875-15.875 .08973-.04359.20108-.05815.34375-.0625zm-291.5625,12.96875c.31887-.07931.58207.07017.78125.5625 .93505,2.31116 1.45708,10.23905.75,13.6875-.36455,1.77789-3.99407,6.97146-4.65625,5.625-1.1577-2.35405-1.65214-10.7056-1.125-12.46875 .65474-2.18996 2.86821-7.06259 4.25-7.40625zm-11.1875,25.75c.65954-.12342.99231,3.22338 1.0625,6.9375 .05891,3.23204-.7372,7.31309-1.78125,6.8125-.54528-.26145-.59464-3.07356-.75-4.125-.21652-1.46547-.15809-7.30864 1.15625-9.375 .10708-.16834.21828-.23237.3125-.25z" fill="#d8d8d2" fill-rule="evenodd" filter="url(#filter4204)"/>
<path d="m515.56573,147.6633c-93.86614.70893-176.1265,55.09111-161.40625,118.09374 28.9522,47.79412 175.99448,47.31433 252.28125,34.90625 11.48897,5.97426 17.88115,10.15838 35.875,29.4375 6.43383,6.89338 12.75248,3.63317 14.21875-2.78125 4.37076-19.12076 12.11784-50.42006 21.625-101.5625-.01288-4.39455-2.01035-15.35799-8.75-20.65625-44.87671-41.33617-101.18713-57.83518-153.84375-57.43749zm-8.46875,11.78125c2.72649.02543 5.16267.67964 5.625,2.6875 .72537,3.15014.81877,12.63243-.75,13.09374-1.74115.51202-12.75925,1.36851-13.59375-.4375-1.10037-2.38138-.75691-12.98372.5-13.84374 .74096-.50699 4.71326-1.53269 8.21875-1.5zm32.0625.71875c4.10753-.03635 9.26237.8158 9.3125,3.46875 .05891,3.23204.28753,13.66367-1.28125,14.12499-1.74115.51202-12.76615.02788-13.71875-1.71875-.98548-1.80694-.392-13.65423.75-15.03124 .38209-.46071 2.47298-.82194 4.9375-.84375zm-65.15625,2.53125c1.62831-.05467 2.92329.23675 3.34375,1.15625 .49853,1.0902 1.44375,12.31624-.125,14.15624-1.17747,1.38106-12.65196,4.29362-13.28125,2.40625-.81315-2.43882-.90811-14.1501.40625-15.12499 .88134-.65372 6.07396-2.47348 9.65625-2.59375zm96.84375,4.03125c3.70475-.04695 11.84105,1.61367 11.90625,5.06249 .05891,3.23204.81878,13.38242-.75,13.84375-1.74115.51202-12.90887-2.2812-13.65625-4.125-.7557-1.86438-.30334-13.55129.78125-14.46874 .22849-.19328.86381-.30167 1.71875-.3125zm-128.9375,4.31249c1.21676-.12246 2.16227.1713 2.46875,1.09375 .73399,2.20915.74937,12.75467-.1875,14.25-.96357,1.53796-11.79214,6.20484-12.40625,4.3125-.69825-2.1516-.80978-12.07848-.28125-13.78125 .45165-1.45509 6.75596-5.50762 10.40625-5.875zm161.4375,5.71875c2.91606.03907 10.92979,2.62962 11,6.34375 .05891,3.23204.06876,14.19493-1.5,14.65625-1.74115.51202-11.15594-3.51418-11.9375-5.34375-.69825-1.6346.38924-14.81233 1.53125-15.5 .17092-.10292.48967-.16183.90625-.15625zm-190.78125,7.5625c.19753-.01979.39623-.02166.5625,0 .61393.07999 1.01674.4541 1.03125,1.25 .05891,3.23204.12254,11.69937-.125,13.40625-.26047,1.79608-9.32174,8.24353-10.15625,6.4375-1.10037-2.38138-1.05148-12.78244-.65625-14.90625 .22244-1.19526 6.38081-5.89064 9.34375-6.1875zm221.09375,7.5625c2.13655-.06515 9.76838,4.1463 9.875,8.125 .05891,2.19803-1.66193,14.46608-2.65625,14.8125-1.71383.59712-9.75908-4.87958-10.34375-6.78125-.41699-1.35631.89244-15.17631 2.78125-16.09375 .08973-.04359.20131-.05816.34375-.0625zm-246.3125,9.65625c.42669.03007.70692.3637.78125,1.15625 .1738,1.85336 1.09909,13.33141-.125,15.34375-.94319,1.55054-6.7905,8.64977-7.625,6.84375-1.10037-2.38138-1.0831-14.22524-.125-16.09375 .79311-1.54676 5.24476-7.38029 7.09375-7.25zm271.5,9.6875c2.14011-.06524 9.79981,4.14557 9.875,8.125 .05891,3.23204-1.64996,15.03867-3.21875,15.5-1.74115.51202-8.35298-5.88148-9.1875-7.6875-1.10037-2.38138.29869-14.95755 2.1875-15.875 .08973-.04359.20108-.05815.34375-.0625zm-291.5625,12.96875c.31887-.07931.58207.07017.78125.5625 .93505,2.31116 1.45708,10.23905.75,13.6875-.36455,1.77789-3.99407,6.97146-4.65625,5.625-1.1577-2.35405-1.65214-10.7056-1.125-12.46875 .65474-2.18996 2.86821-7.06259 4.25-7.40625zm-11.1875,25.75c.65954-.12342.99231,3.22338 1.0625,6.9375 .05891,3.23204-.7372,7.31309-1.78125,6.8125-.54528-.26145-.59464-3.07356-.75-4.125-.21652-1.46547-.15809-7.30864 1.15625-9.375 .10708-.16834.21828-.23237.3125-.25z" fill="#291a0f" fill-rule="evenodd" filter="url(#filter4204)"/>
<path d="m515.72821,147.33835c-93.86614.70893-176.1265,55.09111-161.40625,118.09374 28.9522,47.79412 175.99448,47.31433 252.28125,34.90625 11.48897,5.97426 17.88115,10.15838 35.875,29.4375 6.43383,6.89338 12.75248,3.63317 14.21875-2.78125 4.37076-19.12076 12.11784-50.42006 21.625-101.5625-.01288-4.39455-2.01035-15.35799-8.75-20.65625-44.87671-41.33617-101.18713-57.83518-153.84375-57.43749zm-8.46875,11.78125c2.72649.02543 5.16267.67964 5.625,2.6875 .72537,3.15014.81877,12.63243-.75,13.09374-1.74115.51202-12.75925,1.36851-13.59375-.4375-1.10037-2.38138-.75691-12.98372.5-13.84374 .74096-.50699 4.71326-1.53269 8.21875-1.5zm32.0625.71875c4.10753-.03635 9.26237.8158 9.3125,3.46875 .05891,3.23204.28753,13.66367-1.28125,14.12499-1.74115.51202-12.76615.02788-13.71875-1.71875-.98548-1.80694-.392-13.65423.75-15.03124 .38209-.46071 2.47298-.82194 4.9375-.84375zm-65.15625,2.53125c1.62831-.05467 2.92329.23675 3.34375,1.15625 .49853,1.0902 1.44375,12.31624-.125,14.15624-1.17747,1.38106-12.65196,4.29362-13.28125,2.40625-.81315-2.43882-.90811-14.1501.40625-15.12499 .88134-.65372 6.07396-2.47348 9.65625-2.59375zm96.84375,4.03125c3.70475-.04695 11.84105,1.61367 11.90625,5.06249 .05891,3.23204.81878,13.38242-.75,13.84375-1.74115.51202-12.90887-2.2812-13.65625-4.125-.7557-1.86438-.30334-13.55129.78125-14.46874 .22849-.19328.86381-.30167 1.71875-.3125zm-128.9375,4.31249c1.21676-.12246 2.16227.1713 2.46875,1.09375 .73399,2.20915.74937,12.75467-.1875,14.25-.96357,1.53796-11.79214,6.20484-12.40625,4.3125-.69825-2.1516-.80978-12.07848-.28125-13.78125 .45165-1.45509 6.75596-5.50762 10.40625-5.875zm161.4375,5.71875c2.91606.03907 10.92979,2.62962 11,6.34375 .05891,3.23204.06876,14.19493-1.5,14.65625-1.74115.51202-11.15594-3.51418-11.9375-5.34375-.69825-1.6346.38924-14.81233 1.53125-15.5 .17092-.10292.48967-.16183.90625-.15625zm-190.78125,7.5625c.19753-.01979.39623-.02166.5625,0 .61393.07999 1.01674.4541 1.03125,1.25 .05891,3.23204.12254,11.69937-.125,13.40625-.26047,1.79608-9.32174,8.24353-10.15625,6.4375-1.10037-2.38138-1.05148-12.78244-.65625-14.90625 .22244-1.19526 6.38081-5.89064 9.34375-6.1875zm221.09375,7.5625c2.13655-.06515 9.76838,4.1463 9.875,8.125 .05891,2.19803-1.66193,14.46608-2.65625,14.8125-1.71383.59712-9.75908-4.87958-10.34375-6.78125-.41699-1.35631.89244-15.17631 2.78125-16.09375 .08973-.04359.20131-.05816.34375-.0625zm-246.3125,9.65625c.42669.03007.70692.3637.78125,1.15625 .1738,1.85336 1.09909,13.33141-.125,15.34375-.94319,1.55054-6.7905,8.64977-7.625,6.84375-1.10037-2.38138-1.0831-14.22524-.125-16.09375 .79311-1.54676 5.24476-7.38029 7.09375-7.25zm271.5,9.6875c2.14011-.06524 9.79981,4.14557 9.875,8.125 .05891,3.23204-1.64996,15.03867-3.21875,15.5-1.74115.51202-8.35298-5.88148-9.1875-7.6875-1.10037-2.38138.29869-14.95755 2.1875-15.875 .08973-.04359.20108-.05815.34375-.0625zm-291.5625,12.96875c.31887-.07931.58207.07017.78125.5625 .93505,2.31116 1.45708,10.23905.75,13.6875-.36455,1.77789-3.99407,6.97146-4.65625,5.625-1.1577-2.35405-1.65214-10.7056-1.125-12.46875 .65474-2.18996 2.86821-7.06259 4.25-7.40625zm-11.1875,25.75c.65954-.12342.99231,3.22338 1.0625,6.9375 .05891,3.23204-.7372,7.31309-1.78125,6.8125-.54528-.26145-.59464-3.07356-.75-4.125-.21652-1.46547-.15809-7.30864 1.15625-9.375 .10708-.16834.21828-.23237.3125-.25z" fill="url(#linearGradient3412)" fill-rule="evenodd"/>
</g>
<g fill="#050707" filter="url(#filter3854)">
<path d="m370.1262,459.1131c11.04854,19.82239 13.79455,14.20403 13.32324,14.29811 18.1976-11.69845-8.77384-93.26269-13.32324-158.25412 0,0-16.20708-50.04475-16.08537-50.20588-9.09881,2.2747 12.83579,166.21559 16.08537,194.16189z" fill="#050707" fill-rule="evenodd"/>
<path d="m354.2033,267.87581c30.3835,25.18417 44.76049,8.24785 48.58109,49.88092-14.13564-5.03683-37.93875-25.10294-42.48814-31.11465-1e-005,0-6.09295-18.6038-6.09295-18.76627z" fill="#050707" fill-rule="evenodd"/>
</g>
<path d="m354.85322,270.47545c0,16.8461 14.62478,124.55761 17.64776,141.51884 1e-005,2e-005 24.86404-98.99659 24.59664-99.25986-16.18453-15.93499-28.87308-27.72509-42.2444-42.25898z" fill="url(#linearGradient4107)" fill-rule="evenodd" filter="url(#filter4183)" opacity=".97"/>
<path d="m360.37749,284.28613c-.32496,0 1.01033-1.51934 1.29983-1.29983 25.62466,19.4294 18.76617,19.37603 20.4723,25.34666 0,1e-005-17.71016-14.62306-21.77213-24.04683z" fill="#06060c" fill-rule="evenodd" filter="url(#filter4167)" opacity=".91416"/>
<path d="m360.29412,283.92444c118.56617,105.23897 196.69118,63.11048 242.1875,22.66931 .45956.45955-22.97795,159.46691-23.4375,159.46691 1.23039,88.18844-124.17679,118.36099-202.07128,6.1252-4.13603-56.52574-14.38092-143.68421-16.67872-188.26142z" fill="url(#linearGradient3183)" fill-rule="evenodd"/>
<path d="m603.44545,306.38322c-48.74357,63.69161-150.78013,58.49228-202.12336,6.17418 44.19417,35.09538 130.30782,55.56768 202.12336-6.17418z" fill="#06060c" fill-rule="evenodd" opacity=".70386"/>
<path d="m386.66298,269.17915c-2.75058,9.53585 9.5443,24.12928 10.74105,33.95637 .15441,1.26794-1.89455,3.63058.9777,10.5814 51.02965,43.23898 147.77409,61.88877 204.82864-7.25775l8.13985-30.54714c-29.36933,63.02411-173.73873,93.83841-224.68724-6.73288z" fill="url(#linearGradient3626)" fill-rule="evenodd" filter="url(#filter3346)"/>
<path d="m473.54879,151.06777c-51.95956,9.73321-73.84322,27.56263-87.55004,50.51879 .2816-.04564.51494-.35.6876.15625 .38414,1.12633.37826,15.058.16876,15.93127-.17663.73626-7.7328,6.99112-7.9688,6.15625-.43816-1.55-.31697-3.00128-.48137-4.86877-2.7849,6.74804-6.22019,13.98292-8.93739,21.78125 4.5494,2.76214 10.5694,10.22605 13.6562,18.1875 5.3619-32.98316 33.55722-59.85766 88.15002-69.28141 .1241-2.23313.0032-6.75689.3125-10.0748-3.05396,1.06377-6.79011,1.05177-8.18761.875-1.7361-.21961-1.17324-12.59767-.48744-14.59998 .7093-2.0709 6.38823-3.77895 10.36883-3.95006 .2758-4.33838.47454-8.00114.26874-10.83129zm-32.61244,19.67504c.5834-.03641 1.1305.0041 1.6562.125 1.7054.39224 1.05895,13.63875.8125,14.78125-.2746,1.27297-10.58372,5.75346-12.5938,4.89379-.3255-.13921-1.2516-12.40035-.4062-13.98754 .86829-1.63016 6.4473-5.55761 10.5313-5.8125zm-29.375,13.625c.4385-.04517.83925-.04723 1.125.15625 .571.4066.44308,13.54814.18133,14.46252-.41403,1.44634-9.2606,7.28463-10.08145,6.00634-1.28227-1.99685-1.10027-13.85897-.6562-14.77492 .82683-1.70544 6.36152-5.53397 9.43132-5.85019z" fill="url(#linearGradient3414)" fill-rule="evenodd" opacity=".35193"/>
<path d="m353.61417,266.39729c.80423-11.60387 11.6329-25.1752 16.79023-25.29066 5.64361-.12377 15.40443,11.04826 16.8564,29.95834 .75968,9.89382 4.12535,14.26801 6.46614,20.5512s4.95652,12.03819 4.86627,22.09399c-25.6204-27.9182-44.71602-36.76273-44.97904-47.31287z" fill="#050707" fill-rule="evenodd" filter="url(#filter3838)"/>
<path d="m384.27002,263.22122c.08764,11.03373 10.94022,28.56409 30.22153,44.40943 14.92646,12.26654 34.77287,27.37781 84.43478,29.0486 32.46056,1.08498 113.409-24.72783 112.74638-68.45864-.81192-53.58407-56.57041-80.15215-112.82047-80.78344s-114.9805,25.64101-114.58222,75.78405z" fill="#060809" fill-rule="evenodd"/>
<g filter="url(#filter3912)" opacity=".72103" transform="translate(-.91912,.45956)">
<path d="m571.85366,204.44863c44.28252,23.43949 41.45236,63.23936 39.51539,69.45769-9.63286,30.92473-62.98358,54.4213-111.89953,55.02222 46.75276-2.03535 95.32348-23.29752 108.59441-52.67614 2.87104-6.35579 8.86155-44.07253-36.21027-71.80377z" fill="url(#linearGradient3244)" fill-rule="evenodd"/>
<path d="m412.12478,297.63202c-38.84847-35.82162-24.12972-86.2564 55.30559-107.5963-54.2583,15.94552-100.25821,56.46752-55.30559,107.5963z" fill="url(#linearGradient3246)" fill-rule="evenodd"/>
<path d="m396.50455,258.37364c3.73753-16.04442.38521-27.99547 44.90812-49.23993-44.43294,23.96077-42.6522,41.31587-44.90812,49.23993z" fill="url(#linearGradient3248)" fill-rule="evenodd"/>
<path d="m592.34276,261.76656c-1.55178,13.00737 2.42456,23.94252-18.21035,48.86854 22.23919-25.12895 17.44533-33.63315 18.21035-48.86854z" fill="url(#linearGradient3250)" fill-rule="evenodd" opacity=".18026"/>
</g>
<g filter="url(#filter4085)">
<path d="m434.28305,277.87134c11.41041,24.87468 59.60359-33.50725 39.52206-42.73897-30.29796-13.92833-51.01103,17.69301-39.52206,42.73897z" fill="url(#radialGradient4051)" fill-rule="evenodd" filter="url(#filter3485)" opacity=".09013"/>
<path d="m520.22059,317.50827c18.61213-8.50184 26.53953-13.21232 34.23713-21.71416-1.72335,11.48898-17.46324,24.81618-34.23713,21.71416z" fill="url(#linearGradient4048)" fill-rule="evenodd" filter="url(#filter3373)" opacity=".2103"/>
</g>
<path d="m451.77898,249.1489c-21.36949,25.04595-5.54555,59.66763 34.20447,59.51287 43.90257-.17092 76.05699-10.79964 65.48714-49.63236-23.20772-12.40808-87.74308-10.79963-99.69161-9.88051z" fill="#06060c" fill-rule="evenodd"/>
<path d="m450.97813,225.71139c.91912,29.87132-.15094,28.49264 1.22774,48.25367 8.42497,20.79843 87.42095,36.01962 98.67058-5.09935 .2297-17.46323.9191-27.52932 1.6084-44.30322-44.57718-.22978-56.24018,1.60845-101.50672,1.1489z" fill="url(#linearGradient3260)" fill-rule="evenodd"/>
<path d="m451.40167,225.02206c.17157,44.00215 102.06648,45.34305 102.25183,3.21691 .19963-45.37181-102.42385-47.33395-102.25183-3.21691z" fill="url(#linearGradient3270)" fill-rule="evenodd"/>
<path d="m457.83683,222.75712c-2.12476,33.79458 88.34687,39.47199 88.87579,3.57453 .53918-36.75968-86.75037-37.37967-88.87579-3.57453z" fill-rule="evenodd"/>
<g filter="url(#filter4036)" opacity=".72103" transform="translate(.45956,-.45956)">
<path d="m516.54411,256.73162c40.67095-7.35294 48.48345-34.46691 19.53125-54.45772 30.56066,29.18198 11.94853,44.34743-19.53125,54.45772z" fill="url(#linearGradient3317)" fill-rule="evenodd"/>
<path d="m478.63052,200.20589c-29.87133,10.34006-20.68015,28.03308-18.95681,33.54779-3.27653-12.57826-4.81767-21.83675 18.95681-33.54779z" fill="url(#linearGradient3319)" fill-rule="evenodd"/>
<path d="m471.98512,199.28677c-28.26287,9.76561-20.68015,28.03308-18.95681,33.54779-3.27653-12.57826-4.01344-22.87076 18.95681-33.54779z" fill="url(#linearGradient3321)" fill-rule="evenodd"/>
</g>
<g filter="url(#filter3972)" opacity=".72532" transform="translate(-4.6018573e-6,4.7955996e-7)">
<path d="m551.01103,258.1103c-1.37867,29.41177-19.53125,32.62867-37.9136,38.14338 30.56066-10.56985 33.08823-15.85478 37.9136-38.14338z" fill="url(#linearGradient3546)" fill-rule="evenodd" opacity=".35622"/>
<path d="m554.6875,266.38235c3.21691,24.81618-18.61213,35.15626-36.07537,38.60295 22.74817-8.50184 33.5478-15.16545 36.07537-38.60295z" fill="url(#linearGradient3548)" fill-rule="evenodd" opacity=".44635"/>
<path d="m551.70037,259.02941c11.25919,50.78125-104.31986,57.44485-103.40074-2.52757 4.36581,60.66177 112.13235,49.40257 103.40074,2.52757z" fill="url(#linearGradient3550)" fill-rule="evenodd" opacity=".28326"/>
</g>
<path d="m591.125,160.96875c-.70572,24.22548.649,5.19307-3.25,47.4375 57.51728,35.09536 36.9774,40.2813 81.5625,52.15625 8.7579-38.63482 6.5218-41.78362 3.875-47.9375-6.7548-15.70841-55.8663-43.20736-82.1875-51.65625zm10.90625,16.21875c3.62749-.15995 10.37715,3.66898 11.65625,5.375 1.2999,1.94974.98105,14.63768-.96875,15.9375s-11.36855-2.76288-13.15625-5.6875-1.7992-13.65647 1.125-15.28125c.3656-.20311.82555-.3209 1.34375-.34375zm29.84375,14.71875c2.64468.00152 10.29685,5.58228 10.90625,7.5625 .64989,2.11221-1.2224,14.67623-3.25,15.75-1.95301,1.0343-8.3473-4.36676-10.0625-6-2.26341-2.15519-.153-16.36887 1.9375-17.21875 .12819-.05211.29205-.09385.46875-.09375zm-15.15625,18.40625c1.05373,1.18015.23384,8.82673-1.375,8.75-1.71755-.08191-5.314-1.79565-5.944-3.16269-.76135-1.65204.06494-7.16669 1.92499-7.61222 1.63445-.3915 4.34028.84476 5.39401,2.02491zm40.90625.34375c.07828-.01976.1686-.01015.25,0 2.75968.34496 8.6373,5.20661 9.125,7.96875s-.50665,14.96885-2.78125,15.78125c-2.60581.93064-8.98945-4.62692-9.59375-6.84375-.47232-1.73143.5701-16.29414 3-16.90625zm-31.125,6.15625c2.49378.07458 7.0228,3.81239 8,5.875 .73118,1.54354.00595,8.93139-1.78125,9.90625-2.44161,1.33176-8.44335-3.31081-9.28125-5.1875-1.4967-3.35247.31235-10.10745 2.59375-10.5625 .14669-.02927.30235-.03622.46875-.03125zm21.34375,13.09375c2.89499-.11248 10.36295,5.33548 11.03125,7.5625 .48738,1.62477-2.6254,10.24376-4.25,10.40625-2.60692.2607-10.43325-4.02282-11.34375-5.84375-.97491-1.94975 2.4377-11.38134 4.0625-12.03125 .14909-.05964.307-.08625.5-.09375z" fill="url(#linearGradient3675)" fill-rule="evenodd" opacity=".4206"/>
<g filter="url(#filter3346)">
<path d="m437.44301,412.9692v-45.8125l30.90625,11.04854v5.40625l-24.84375-8.88128v14.1875l21.5,7.68594v5.40625l-21.5-7.68594v20.8125l-6.0625-2.16726z"/>
<path d="m477.28676,424.99261v-45.8125l6.0625.97488v45.8125l-6.0625-.97488z"/>
<path d="m493.75551,427.59227c-.13359-24.4995 0-45.8125 0-45.8125l6.0625-.20647c0,0-.26723,22.88313 0,40.40625 9.74418,1.78218 22.5625-.76841 22.5625-.76841v5.40625c0,0-7.17367,2.72194-28.625.97488z"/>
<path d="m527.16831,425.96748 3.43017-45.8125 9.35861-3.11996 8.69262,28.72988c.79939,2.67894 1.37798,4.69004 1.73577,6.03331 .65891-1.84472 1.67551-4.57044 3.04975-8.17716l13.63617-35.62536 8.36506-2.78873-3.43017,45.8125-5.99336,1.99805 2.87096-38.34375-16.52427,42.89548-5.60875,1.86983-10.66911-34.46964-2.9201,39-5.99335,1.99805z"/>
<path d="m404.48814,477.53148c-.05828-2.72908-.38641-5.73977 2.56462-2.51501 4.63335,2.66853 4.66778-6.39519.42806-12.23739-3.46075-5.47304-8.05144-5.7559-7.65352-.33339 .83757,3.81162-4.36738-3.05675-2.53622-4.2001 .49523-5.63716-6.93173-14.46031-8.2911-9.52837-1.99747,2.78498 2.74956,9.47383 3.61185,12.26465-.12039,4.89217-3.58229-.96461-5.12409-5.0206-3.89325-9.61731.03854-17.82316 6.69774-10.56816 3.60918,2.05977 4.37095,12.91742 5.9797,8.47105 4.04239-2.2946 12.23802,9.27243 13.03395,17.31186 1.24673,7.54595-2.36653,12.06284-7.88386,7.09569l-.82713-.74023z" fill="#444" stroke="#444" stroke-width=".88505"/>
<path d="m387.40666,416.43116c-3.28299.34553-3.65007,6.81476-.59019,13.46875 4.42602,9.30133 11.51655,16.13318 17.50703,21.34375 5.06397,4.57665 9.75872,4.15011 9.5382-1.96875 .29665-6.66562-6.47445-17.40353-11.99253-21.09375-5.79629-4.48296-9.03393.95251-5.54295,9.5 4.09788,7.39297-1.78791.02176-4.02607-2.875-3.91426-4.84647-6.60784-13.53419-2.94106-13.46875 3.05773,2.44633 3.47262.98572 3.06752-2.40625l-.83102-.65625-.7748-.5625c-1.3655-.99558-2.4949-1.378-3.41413-1.28125zm12.40915,15.34375c2.73491-.01875 7.74805,5.08379 10.02341,10.375 3.41894,7.69622-1.41964,9.78458-6.13487,4.34375-3.44064-3.20176-6.41595-9.53544-5.7038-12.8125 .21799-1.32441.90362-1.9 1.81526-1.90625z" fill="#444" stroke="#444" stroke-width=".88505"/>
<path d="m414.48015,436.50066-31.45925-38.31629c-.01865-1.65375-.51335-4.38023 1.78496-.81304l29.67007,36.11758c.00141,1.00393.00281,2.00783.00422,3.01175z" fill="#444" stroke="#444" stroke-width=".88505"/>
<path d="m413.03972,405.76893c-.35424.81558 1.30051,5.1169-.89161,2.7436l-24.00819-21.31597c1.20431,2.65475 7.34938,13.64193 3.53132,10.2058-4.08296-3.07252-4.38173-9.16272-7.97242-13.74564-1.88608-1.92044-4.57814-7.98477-1.78753-5.52557l31.12843,27.63778z" fill="#333" stroke="#333" stroke-width=".88505"/>
<path d="m381.09485,356.94383c-2.28036.23264-2.8734,2.97984-1.08214,7.375 3.29415,8.08034 11.68976,15.84215 17.97857,21.03125 5.35111,4.36222 11.74498,9.35773 14.91592,8.5 3.50445-1.19482-.04807-10.97036-6.82563-18.09375-6.94003-7.42198-14.45083-13.76657-20.90044-17.5-1.67138-1.01728-3.04976-1.41824-4.08628-1.3125zm2.58476,4.71875c3.93526.22711 10.54336,6.49932 15.9776,11 4.59518,3.70586 11.64741,11.57785 11.00539,15.53125-1.22068,3.39883-8.36119-2.78307-13.19856-6.6875-2.62044-2.18494-5.27516-4.46359-7.91054-7.09375-4.87206-4.17651-9.19963-12.59771-5.87389-12.75z" fill="#333" stroke="#333" stroke-width=".88505"/>
<path d="m380.10425,333.25634c-2.27242.23264-2.77162,2.97986-.83025,7.375 3.57014,8.08035 12.23619,15.8734 18.70224,21.0625 5.50011,4.36223 12.06457,9.3577 15.20624,8.5 3.46364-1.19483-.42811-11.0016-7.44897-18.125-7.19353-7.42198-14.91567-13.7353-21.4928-17.46875-1.70612-1.01728-3.10355-1.44949-4.13646-1.34375zm2.74593,4.71875c3.94302.2271 10.76536,6.49932 16.3533,11 4.72177,3.70588 12.04283,11.57783 11.53585,15.53125-1.10459,3.39882-8.4509-2.75181-13.42161-6.65625-2.69509-2.18495-5.43299-4.49486-8.15818-7.125-5.0147-4.17652-9.62989-12.59772-6.30936-12.75z" fill="#333" stroke="#333" stroke-width=".88505"/>
<path d="m436.91595,435.25213v-10.02149l6.76075,2.59966v1.18262l-5.43457-2.08971v3.10351l4.70312,1.80845v1.18262l-4.70312-1.80845v4.55274l-1.32618-.50995z"/>
<path d="m449.8125,430.13557c-1.41277-.38282-2.57552-.23272-3.46875.4663s-1.34375,1.87872-1.34375,3.54213c0,.87956.17968,1.79153.5625,2.68367s.94466,1.644 1.6875,2.30102 1.58789,1.11778 2.53125,1.3734c.87044.23587 1.68554.24418 2.4375.03551s1.33983-.64735 1.75-1.3383 .62499-1.53312.625-2.54939c-1e-005-1.00261-.20411-1.9521-.59375-2.84839s-.94467-1.68891-1.6875-2.33227-1.57488-1.083-2.5-1.33368zm0,1.15625c.6608.17907 1.25032.50385 1.78125.98267s.94303,1.0534 1.21875,1.73649 .40624,1.45058.40625,2.26633c-1e-005,1.28972-.3239,2.17917-.96875,2.70625s-1.4707.66398-2.46875.39353c-.97982-.2655-1.78809-.85202-2.4375-1.72299s-.96876-1.89858-.96875-3.10625c-1e-005-1.50847.32324-2.4863 1-2.94779s1.4987-.56263 2.4375-.30824z"/>
<path d="m456.3125,432.53157v10.03125l1.3125.28936v-4.46875l1.5625.34448c.34179.07535.56835.15591.71875.22096 .20507.09535.42675.21648.625.38779s.40559.45791.65625.83218 .58137.90161.96875,1.58857l1.3125,2.38312 1.6875.37203-1.75-3.13581c-.34637-.60957-.70639-1.11277-1.09375-1.55364-.1823-.20425-.4616-.43314-.8125-.67913 .96158.07984 1.6647-.08286 2.125-.46901s.68749-.94999.6875-1.66093c-1e-005-.55143-.12827-1.07254-.40625-1.58956s-.66017-.90303-1.125-1.18552-1.13803-.53214-2.03125-.72908l-4.4375-.97831zm1.3125,1.38311 3.1875.70273c.74283.16378 1.28091.44582 1.625.82701s.53124.79942.53125,1.27337c-1e-005,.32357-.10352.60772-.28125.84425s-.43946.37155-.78125.42151-.80014.0111-1.40625-.12253l-2.875-.63384v-3.3125z"/>
<path d="m477.43939,443.76832 1.32617.52953c-.278,1.04842-.77816,1.8056-1.50048,2.27156s-1.60532.62238-2.64893.46926c-1.08008-.15847-1.9585-.50724-2.63525-1.0463s-1.19174-1.25151-1.54493-2.13732-.52978-1.80721-.52978-2.76424c0-1.04362.19938-1.92468.59814-2.64321s.96615-1.22542 1.70215-1.52077 1.54606-.37814 2.43018-.24843c1.0026.14711 1.84569.52602 2.52929,1.13672s1.15983,1.39837 1.42872,2.36294l-1.30567.11606c-.23243-.76327-.56967-1.34367-1.01172-1.74122s-.99805-.64544-1.66797-.74374c-.77018-.11299-1.4139-.02287-1.93115.27037s-.8807.73554-1.09033,1.32685-.31446,1.21738-.31445,1.87818c-1e-005,.85222.12418,1.61442.37256,2.2866s.63459,1.20394 1.15869,1.59529 1.09146.63182 1.70214.72141c.74284.10899 1.37174-.01293 1.88672-.36576s.8636-.93742 1.0459-1.75378z"/>
<path d="m484.8125,438.2954c-1.41277-.14355-2.57552.20347-3.46875,1.05377s-1.34375,2.10629-1.34375,3.7697c0,.87956.17968,1.7611.5625,2.58841s.94466,1.48401 1.6875,2.01523 1.58789.84885 2.53125.94471c.87044.08845 1.68554-.04128 2.4375-.37731s1.33983-.87426 1.75-1.63467 .62499-1.63897.625-2.65524c-1e-005-1.00261-.20411-1.91754-.59375-2.74784s-.94467-1.52892-1.6875-2.04647-1.57488-.81628-2.5-.91029zm0,1.15625c.6608.06716 1.25032.2921 1.78125.681s.94303.89369 1.21875,1.53009 .40624,1.38178.40625,2.19753c-1e-005,1.28972-.3239,2.23402-.96875,2.87031s-1.4707.91306-2.46875.81164c-.97982-.09956-1.78809-.5492-2.4375-1.31018s-.96876-1.73451-.96875-2.94219c-1e-005-1.50846.32324-2.54104 1-3.11714s1.4987-.81645 2.4375-.72106z"/>
<path d="m491.23431,448.98914v-10.02149l1.32618.06882v8.83887l4.93554.25614v1.18262l-6.26172-.32496z"/>
<path d="m503.46875,439.26869c-1.41277,1e-005-2.54427.46518-3.4375,1.40625s-1.34375,2.24284-1.34375,3.90625c0,.87956.17969,1.74284.5625,2.53125s.94465,1.38802 1.6875,1.84375 1.58789.6875 2.53125.6875c.87044,0 1.68554-.21256 2.4375-.625s1.33983-1.01041 1.75-1.8125 .59374-1.70247.59375-2.71875c-1e-005-1.0026-.17286-1.8968-.5625-2.6875s-.97592-1.43293-1.71875-1.875-1.57488-.65624-2.5-.65625zm0,1.15625c.66081,1e-005 1.28157.16505 1.8125.5s.91178.79786 1.1875,1.40625 .43749,1.3405.4375,2.15625c-1e-005,1.28972-.3239,2.26693-.96875,2.96875s-1.47071,1.0625-2.46875,1.0625c-.97983,0-1.78809-.36751-2.4375-1.0625s-1-1.63606-1-2.84375c0-1.50845.35449-2.57388 1.03125-3.21875s1.46745-.96874 2.40625-.96875z"/>
<path d="m510,439.29371v10.03125l1.3125-.1452v-4.46875l1.53125-.16939c.34179-.03781.5996-.03572.75-.02047 .20507.02746.3955.07865.59375.18432s.43684.32017.6875.61145 .55012.71258.9375,1.27129l1.34375,1.94509 1.65625-.18322-1.75-2.55641c-.34636-.49488-.70639-.87888-1.09375-1.1915-.1823-.14389-.43035-.28378-.78125-.41358 .96158-.23853 1.66471-.63402 2.125-1.17257s.68749-1.17762.6875-1.88856c-1e-005-.55143-.12827-1.03007-.40625-1.45506s-.66017-.68444-1.125-.81304-1.13803-.15535-2.03125-.05654l-4.4375.49089zm1.3125.94855 3.15625-.34915c.74283-.08217 1.31217.01826 1.65625.28552s.49999.62699.5,1.10094c-1e-005,.32357-.07227.63854-.25.93391s-.43946.51706-.78125.68017-.83139.27949-1.4375.34653l-2.84375.31458v-3.3125z"/>
<path d="m523.51361,444.74428 1.25098-.31321c.05924.49166.1971.88049.41357,1.16651s.55257.49103 1.0083.61501 .96842.13957 1.53809.04675c.50585-.08242.95247-.23038 1.33984-.44389s.67561-.46669.86475-.75956 .28368-.59423.28369-.90413-.09115-.57417-.27344-.77918c-.1823-.20498-.48308-.35309-.90234-.44428-.26889-.061-.86361-.12702-1.78418-.19807s-1.56543-.17445-1.93457-.31026c-.47852-.17269-.83513-.42561-1.06983-.7588s-.35205-.7299-.35205-1.1902c0-.50585.14356-1.00206.43067-1.48863s.70638-.88869 1.25781-1.2064 1.16438-.53151 1.83887-.64142c.74283-.12103 1.39794-.10814 1.96533.03867s1.00374.42777 1.30908.84285 .46939.91474.49219,1.4989l-1.27149.30289c-.06836-.62233-.29964-1.06315-.69384-1.3225s-.97641-.32625-1.74659-.20077c-.80208.1307-1.38655.3729-1.75341.72661s-.5503.73795-.5503,1.15265c0,.36004.12988.63509.38965.82519s.92171.32036 1.99951.38856 1.81722.16079 2.21827.27772c.58332.17385 1.01399.44432 1.29199.81146s.41698.8196.41699,1.35736c-1e-005,.5332-.15268,1.06051-.45801,1.58194s-.74398.95976-1.31592,1.315-1.21566.59114-1.93115.70772c-.9069.14776-1.66683.13942-2.27978-.02503s-1.09375-.48373-1.44239-.95785-.53206-1.04466-.55029-1.71161z"/>
<path d="m533.26166,446.01427v-10.02149l1.32617-.27529v8.83887l4.93555-1.02453v1.18262l-6.26172,1.29982z"/>
<path d="m541.3349,444.01427v-10.02149l1.32617-.32496v10.02149l-1.32617.32496z"/>
<path d="m545,432.80628v10.03125l3.59375-1.26918c.60611-.21405 1.15787-.48248 1.625-.76138s.85709-.58167 1.1875-.91938 .62824-.74303.90625-1.2263 .50976-1.06088.6875-1.71155 .28124-1.33825.28125-2.09933c-1e-005-.89322-.14422-1.66031-.40625-2.26278s-.65886-1.00819-1.1875-1.26812c-.40561-.2031-.89453-.27066-1.46875-.20004-.41016.04915-1.00195.19761-1.78125.47282l-3.4375,1.21399zm1.3125.72397 2.125-.75046c.7884-.27843 1.33202-.41963 1.6875-.40846 .49218.01759.93717.26247 1.28125.70376s.49999,1.1815.5,2.22967c-1e-005,.75651-.07455,1.43291-.25,2.02579s-.43556,1.08937-.75,1.51487c-.22332.30218-.53028.59547-.90625.8513s-.87045.49491-1.53125.72828l-2.15625.7615v-7.65625z"/>
<path d="m555.13666,439.31409v-10.02149l7.24609-3.77829v1.18262l-5.91992,3.08679v3.06933l5.54394-2.89075v1.17579l-5.54394,2.89075v3.41113l6.15234-3.20798v1.18262l-7.47851,3.89948z"/>
<path d="m564.0097,431.55667 1.25098-.82278c.05924.46752.1971.80019.41358.99803s.55256.26595 1.0083.20429 .96842-.2549 1.53808-.57977c.50586-.28848.95247-.61836 1.33985-.98966s.67561-.7419.86474-1.1118 .28369-.70979.28369-1.01969-.09115-.53704-.27343-.6678-.48308-.15632-.90235-.07673c-.26888.04853-.86361.22477-1.78418.52871s-1.56543.46321-1.93457.47776c-.47852.02224-.83512-.08543-1.06982-.32302s-.35205-.58649-.35205-1.04679c0-.50585.14355-1.06054.43066-1.66406s.70638-1.17642 1.25781-1.71876 1.16439-1.00581 1.83887-1.39046c.74283-.42361 1.39794-.67757 1.96533-.76189s1.00374.01891 1.30908.30961 .4694.72353.49219,1.29842l-1.27148.8208c-.06837-.59447-.29965-.94108-.69385-1.03986s-.9764.07148-1.74658.51068c-.80209.45742-1.38656.9377-1.75342,1.44085s-.55029.9621-.55029,1.3768c0,.36004.12988.58219.38965.66647 .2552.08689.9217-.05508 1.99951-.42592s1.81721-.57943 2.21826-.62586c.58333-.06377 1.01399.03129 1.29199.28518s.41699.64974.41699,1.1875c0,.5332-.15267,1.1227-.458,1.76851s-.74399,1.26282-1.31592,1.85102-1.21567,1.08633-1.93115,1.49435c-.90691.51719-1.66684.8184-2.27979.90363s-1.09375-.03821-1.44238-.37031-.53207-.82793-.5503-1.48745z"/>
<path d="m437.15625,456.22562v12.875l4.65625,1.84587c.77929.30893 1.4619.50727 2.0625.59888s1.10644.06656 1.53125-.04921 .83007-.33207 1.1875-.6855 .64647-.86286.875-1.52812 .34374-1.47896.34375-2.45748c-1e-005-1.14843-.1631-2.26485-.5-3.29196s-.85157-1.95086-1.53125-2.79453c-.52149-.65204-1.16798-1.19934-1.90625-1.66195-.52735-.33208-1.27931-.69464-2.28125-1.09185l-4.4375-1.75915zm1.71875,2.18136 2.6875,1.0654c1.01366.40186 1.76171.80387 2.21875,1.16083 .63281.49696 1.15135,1.17031 1.59375,2.06931s.68749,2.04989.6875,3.39754c-1e-005,.97266-.11817,1.7393-.34375,2.33248s-.53321,1.00933-.9375,1.25335c-.28712.17329-.67286.26256-1.15625.22913s-1.15039-.2373-2-.57411l-2.75-1.09018v-9.84375z"/>
<path d="m453.6875,462.30922-4.9375,11.27884 1.8125.58593 1.40625-3.45165 5.40625,1.7477 1.5,4.39116 1.9375.62634-5.28125-14.58228-1.84375-.59604zm.875,1.62661c.19921.76168.52734,1.74276.9375,2.95932l1.34375,4.02815-4.375-1.41432 1.40625-3.32665c.29882-.71784.52343-1.47335.6875-2.2465z"/>
<path d="m465.81735,478.65238v-5.458l-4.96582-8.65623 2.07422.51355 2.54004,4.51364c.46874.84263.90527,1.67727 1.30957,2.50392 .38671-.57807.85546-1.22081 1.40625-1.92819l2.49609-3.17009 1.98633.49179-5.1416,6.15377v5.458l-1.70508-.42216z"/>
<path d="m474.14059,480.51001v-12.88476l1.70508.20647v11.36426l6.34571.76839v1.5205l-8.05079-.97486z"/>
<path d="m484.52048,482.18504v-12.88476l1.70508.32496v12.88476l-1.70508-.32496z"/>
<path d="m495.08944,478.32334v-1.51171l5.45801.58648v4.78125c-.8379.57659-1.70216.98477-2.59277,1.22454s-1.8047.30855-2.74219.2063c-1.26563-.13804-2.41553-.53444-3.44971-1.18923s-1.81494-1.52363-2.34228-2.60653-.79102-2.25716-.79102-3.52279c0-1.2539.26221-2.39572.78662-3.42544s1.27881-1.75457 2.26319-2.17456 2.11815-.55998 3.40136-.42005c.93164.10163 1.77392.34436 2.52686.72823s1.34325.86868 1.771,1.45438 .75291,1.32432.97558,2.21578l-1.53808.25413c-.19338-.67734-.43361-1.21916-.72071-1.62549s-.69727-.75133-1.23047-1.03507-1.125-.46107-1.77539-.53201c-.7793-.08499-1.45313-.03983-2.02148.13548s-1.02686.43733-1.37549.78602-.61963.74395-.81299,1.18574c-.32813.7611-.49219,1.60746-.49219,2.5391 0,1.14844.19776,2.13095.59327,2.94752s.97118,1.45358 1.72705,1.91102 1.55858.73248 2.4082.82514c.73827.08052 1.45898.01704 2.16211-.19046s1.23632-.45256 1.59961-.7352v-2.39942l-3.78809-.41315z"/>
<path d="m503.26755,483.3224v-12.88476l1.70508-.10964v5.29101l6.69726-.43064v-5.29101l1.70508-.10964v12.88476l-1.70508.10964v-6.07324l-6.69726.43064v6.07324l-1.70508.10964z"/>
<path d="m519.50095,481.80724v-11.36425l-4.24512.54029v-1.52051l10.21289-1.29982v1.52051l-4.2627.54252v11.36425l-1.70507.21701z"/>
<path d="m437.92499,495.66903v7.15625l.9375.47351v-2.90625l1.84375.93123c1.01237.51133 1.70637.62715 2.09375.40126s.59375-.62263.59375-1.23136c0-.35482-.0739-.70985-.21875-1.07924s-.35613-.70298-.59375-.98739-.52344-.54953-.875-.78569c-.25066-.17216-.61849-.37487-1.09375-.61492l-2.6875-1.3574zm.9375,1.31726 1.84375.93123c.42968.21703.71549.38157.875.50445 .24739.19331.44238.41647.59375.70614s.21875.59227.21875.89174c0,.41342-.11784.68136-.375.77934s-.70053-.01007-1.3125-.31917l-1.84375-.93123v-2.5625z"/>
<path d="m443.88133,498.59363v7.15625l.9375.45848v-3.1875l1.125.55018c.24414.11939.39257.20044.5.27577 .14648.10745.2959.24106.4375.40146s.32096.4291.5.74452 .37955.72467.65625,1.28969l.96875,1.97376 1.1875.58074-1.25-2.58006c-.2474-.50185-.50457-.93034-.78125-1.31956-.13022-.18088-.31186-.37582-.5625-.61884 .68684.24149 1.17121.23359 1.5.04606s.49999-.52891.5-1.03672c-1e-005-.39388-.08269-.77742-.28125-1.20004s-.48048-.79391-.8125-1.08485-.79948-.57848-1.4375-.8905l-3.1875-1.55884zm.9375,1.23973 2.28125,1.11563c.5306.2595.91048.57093 1.15625.90922s.37499.65734.375.99588c-1e-005,.23112-.06056.4297-.1875.56455s-.31837.19228-.5625.16242-.56706-.15231-1-.36404l-2.0625-1.00866v-2.375z"/>
<path d="m454.875,503.30682c-1.00912-.3354-1.83073-.28068-2.46875.17944s-.9375,1.2815-.9375,2.46965c0,.62826.13281,1.26224.40625,1.91628s.6569,1.23657 1.1875,1.73844 1.13867.87847 1.8125,1.10244c.62174.20665 1.21289.26023 1.75.14416s.95703-.42149 1.25-.89703 .4375-1.06617.4375-1.79209c0-.71614-.15918-1.42563-.4375-2.08291s-.6569-1.21507-1.1875-1.7072-1.1517-.85154-1.8125-1.07118zm0,.8125c.472.15689.90202.40431 1.28125.7696s.67806.82206.875,1.32208 .28125,1.0108.28125,1.59348c0,.92123-.22689,1.57954-.6875,1.92775s-1.03711.40528-1.75.16834c-.69987-.23262-1.28613-.68106-1.75-1.33166s-.6875-1.39713-.6875-2.25976c0-1.07747.23535-1.77366.71875-2.07361s1.04817-.3391 1.71875-.11622z"/>
<path d="m464.62598,511.8071 .94726.57976c-.19857.70663-.55583,1.17146-1.07178,1.39453s-1.14665.20062-1.89208-.06734c-.77149-.27732-1.39893-.65993-1.88233-1.14781s-.85124-1.07504-1.10351-1.76141-.37842-1.37138-.37842-2.05497c0-.74544.14241-1.34448.42724-1.79712s.69011-.72847 1.21582-.82761 1.10433-.03516 1.73584.19184c.71614.25743 1.31836.6562 1.80664,1.19629s.82845,1.17507 1.02051,1.90492l-.93262-.11551c-.16602-.58052-.4069-1.04633-.72265-1.39746s-.7129-.6127-1.19141-.78471c-.55013-.19774-1.00993-.2312-1.37939-.10033s-.62907.39156-.77881.78206-.22461.82178-.22461,1.29378c0,.60873.0887,1.17202.26611,1.68989s.45329.95639.82764,1.31557 .77962.61716 1.21582.77395c.53059.19072.97981.19921 1.34766.02545s.61685-.53836.74707-1.09377z"/>
<path d="m466.52093,514.78129v-7.15821l5.17578,1.10201v.84473l-4.22852-.90032v2.19238l3.95997.84314v.83985l-3.95997-.84314v2.43652l4.39454.93567v.84473l-5.3418-1.13736z"/>
<path d="m472.77758,514.25704 .89355.04928c.04232.3641.14079.67193.29541.92346s.3947.47131.72022.65932 .69173.31102 1.09863.36903c.36133.05152.68034.04329.95703-.02468s.48258-.18592.61768-.35384 .20263-.36255.20264-.5839-.06511-.43001-.19532-.61623-.34505-.35762-.64453-.51425c-.19206-.10225-.61686-.27918-1.27441-.53081s-1.11817-.46622-1.38184-.64379c-.3418-.22776-.59652-.48624-.76416-.77545s-.25146-.59818-.25146-.92696c0-.36132.10253-.68443.30761-.96933s.50456-.48063.89844-.58724 .8317-.12556 1.31348-.05689c.53059.07566.99853.22782 1.40381.45649s.71695.52459.93506.88772 .33528.75581.35156,1.17805l-.90821-.06113c-.04883-.45943-.21403-.82478-.4956-1.09604s-.69743-.44611-1.24756-.52455c-.57292-.08168-.9904-.03622-1.25244.13638s-.39307.40702-.39307.70323c0,.25717.09277.48199.27832.67445 .18229.19201.65837.42997 1.42823.71388s1.29801.51139 1.58447.68244c.41666.25147.72428.53864.92285.86155s.29785.67642.29785,1.06053-.10905.7242-.32715,1.03001-.53142.5232-.93994.65214-.86833.15696-1.37939.0841c-.64779-.09235-1.1906-.26414-1.62842-.51536s-.78125-.5842-1.03027-.99895-.38005-.86228-.39307-1.34266z"/>
<path d="m479.29479,515.52589 .89355.0238c.04232.36289.14079.66791.29541.91504s.39469.46006.72022.63878 .69172.2913 1.09863.33771c.36132.04121.68033.02388.95703-.05198s.48258-.19968.61768-.37145 .20263-.36833.20263-.58968-.06511-.42815-.19531-.61065-.34506-.34779-.64453-.49587c-.19206-.09678-.61687-.2616-1.27442-.49448s-1.11816-.43433-1.38183-.60438c-.3418-.21802-.59652-.46924-.76416-.75367s-.25147-.59101-.25147-.91979c0-.36132.10254-.68736.30762-.9781s.50456-.49502.89844-.61285 .8317-.14928 1.31348-.09434c.53059.06052.99853.19934 1.4038.41646s.71696.50414.93506.86105 .33528.74625.35156,1.16802l-.9082-.03522c-.04883-.45804-.21403-.81868-.4956-1.08192s-.69744-.42623-1.24756-.48897c-.57292-.06534-.9904-.00798-1.25244.17209s-.39307.41823-.39307.71444c0,.25717.09277.47934.27832.66652 .18229.18681.65836.41118 1.42822.67314s1.29801.47439 1.58448.63727c.41666.23958.72427.51799.92285.83524s.29784.66792.29785,1.05203-.10906.72731-.32715,1.03934-.53142.53835-.93994.67894-.86833.18172-1.3794.12343c-.64778-.07388-1.19059-.23019-1.62841-.46893s-.78125-.56192-1.03028-.96957-.38004-.85144-.39306-1.33145z"/>
<path d="m498.82752,517.12409 .94726.2879c-.19857.7678-.55583,1.34272-1.07177,1.72475s-1.14665.55391-1.89209.51563c-.77149-.03962-1.39893-.22891-1.88233-.56785s-.85123-.81276-1.10351-1.42142-.37842-1.25478-.37842-1.93837c0-.74544.14241-1.38836.42725-1.92875s.6901-.94111 1.21582-1.20221 1.10432-.37542 1.73584-.343c.71614.03679 1.31835.25 1.80664.63966s.82844.91982 1.0205,1.59049l-.93261.17183c-.16602-.52936-.40691-.92096-.72266-1.1748s-.71289-.39305-1.19141-.41763c-.55013-.02824-1.00993.07998-1.37939.32468s-.62907.58537-.77881,1.02201-.22461.89098-.22461,1.36298c0,.60873.08871,1.14469.26612,1.6079s.45328.81674.82763,1.06057 .77962.37695 1.21582.39935c.5306.02725.97982-.10268 1.34766-.38978s.61685-.72841.74707-1.32394z"/>
<path d="m500.33008,516.05248v-.88379h2.70019v.88379h-2.70019z"/>
<path d="m506.75,512.05596-3.28125,4.625v.8125h3.125v1.71875h.875v-1.71875h.96875v-.8125h-.96875v-4.625h-.71875zm-.15625,1.40625v3.21875h-2.25l2.25-3.21875z"/>
<path d="m512.80701,518.49489-.87891.10832v-5.60059c-.21159.22791-.48909.46393-.83251.70807s-.65186.43354-.9253.56814v-.84961c.49154-.29169.92122-.6246 1.28907-.99871s.62825-.72521.78124-1.05331l.56641-.06981v7.1875z"/>
<path d="m435.93002,442.05285c0,0 80.26441,35.5828 136.96944-5.52428" fill="none" stroke="#000"/>
<path d="m435.6863,481.76821c0,0 79.77698,41.75699 130.63278-13.97317" fill="none" stroke="#000"/>
</g>
<path d="m376.70658,471.86766c41.26955,61.09194 98.38078,76.03997 127.30196,71.81552 .0808-134.90051-1.29983-145.90576-143.95602-259.96572 3.24958,43.86922 11.45474,132.25758 16.65406,188.1502z" fill="url(#linearGradient3685)" fill-rule="evenodd"/>
</g>
</svg>
